<?xml version="1.0" standalone="no"?><!DOCTYPE svg PUBLIC "-//W3C//DTD SVG 1.1//EN" "http://www.w3.org/Graphics/SVG/1.1/DTD/svg11.dtd"><svg t="1697698425233" class="icon" viewBox="0 0 1024 1024" version="1.1" xmlns="http://www.w3.org/2000/svg" p-id="7059" xmlns:xlink="http://www.w3.org/1999/xlink" width="200" height="200"><path d="M512 51.2A317.8496 317.8496 0 0 1 829.44 368.64v286.72a317.44 317.44 0 0 1-634.88 0V368.64A317.8496 317.8496 0 0 1 512 51.2M512 0A369.664 369.664 0 0 0 143.36 368.64v286.72a368.64 368.64 0 0 0 737.28 0V368.64A369.664 369.664 0 0 0 512 0z" fill="#282828" p-id="7060"></path><path d="M512 384a25.6 25.6 0 0 1-25.6-25.6V199.68a25.6 25.6 0 0 1 51.2 0v158.72A25.6 25.6 0 0 1 512 384z" fill="#282828" p-id="7061"></path></svg>